<?xml version="1.0" standalone="no"?>
<!DOCTYPE svg PUBLIC "-//W3C//DTD SVG 20010904//EN"
 "http://www.w3.org/TR/2001/REC-SVG-20010904/DTD/svg10.dtd">
<svg version="1.0" xmlns="http://www.w3.org/2000/svg"
 width="500.000000pt" height="500.000000pt" viewBox="0 0 500.000000 500.000000"
 preserveAspectRatio="xMidYMid meet">
<metadata>
Created by potrace 1.11, written by Peter Selinger 2001-2013
</metadata>
<g transform="translate(0.000000,500.000000) scale(0.100000,-0.100000)"
fill="#000000" stroke="none">
<path d="M3060 4984 c-608 -92 -1391 -550 -2002 -1170 -427 -434 -696 -878
-773 -1279 -23 -118 -23 -307 -1 -395 63 -249 251 -393 562 -430 219 -27 488
26 812 160 68 27 145 62 173 76 28 14 53 23 56 21 2 -3 -35 -52 -82 -108 -287
-342 -479 -707 -540 -1024 -23 -118 -23 -307 -1 -395 63 -249 251 -393 562
-430 282 -34 641 62 1104 294 393 198 832 485 1205 789 161 131 345 299 339
308 -10 16 -29 9 -74 -28 -105 -84 -373 -280 -509 -371 -599 -402 -1139 -658
-1591 -753 -143 -30 -386 -33 -475 -5 -83 26 -128 50 -170 91 -159 159 -133
493 70 890 167 328 397 629 744 975 600 597 1250 974 1746 1015 198 16 352
-52 385 -171 16 -56 9 -107 -24 -180 -51 -111 -246 -274 -429 -359 -126 -58
-287 -100 -287 -75 0 16 28 69 57 108 37 49 9 38 -54 -20 -76 -72 -113 -131
-113 -183 0 -63 27 -131 66 -165 29 -25 43 -30 88 -30 234 0 612 279 760 560
98 187 85 363 -35 475 -359 336 -1440 -37 -2309 -795 -79 -68 -132 -105 -211
-145 -260 -132 -542 -234 -789 -286 -143 -30 -386 -33 -475 -5 -83 26 -128 50
-170 91 -159 159 -133 493 70 890 167 328 397 629 744 975 600 597 1250 974
1746 1015 198 16 352 -52 385 -171 16 -56 9 -107 -24 -180 -51 -111 -246 -274
-429 -359 -126 -58 -287 -100 -287 -75 0 16 28 69 57 108 37 49 9 38 -54 -20
-76 -72 -113 -131 -113 -183 0 -63 27 -131 66 -165 29 -25 43 -30 88 -30 234
0 612 279 760 560 51 97 69 170 64 254 -18 267 -279 392 -688 330z"/>
</g>
</svg>
